<?xml version="1.0" encoding="iso-8859-1"?>
<!-- Generator: Adobe Illustrator 18.0.0, SVG Export Plug-In . SVG Version: 6.00 Build 0)  -->
<!DOCTYPE svg PUBLIC "-//W3C//DTD SVG 1.1//EN" "http://www.w3.org/Graphics/SVG/1.1/DTD/svg11.dtd">
<svg version="1.1" id="Capa_1" xmlns="http://www.w3.org/2000/svg" xmlns:xlink="http://www.w3.org/1999/xlink" x="0px" y="0px"
	 viewBox="0 0 491.324 491.324" style="enable-background:new 0 0 491.324 491.324;" xml:space="preserve">
<path d="M283.309,18.578C273.656,6.758,260.008,0.008,245.688,0c-14.309-0.008-27.969,6.719-37.625,18.539
	C154.637,83.856,63.219,207.332,63.219,287.148c0,112.758,81.699,204.176,182.438,204.176c100.766,0,182.449-91.418,182.449-204.176
	C428.105,207.348,336.734,83.91,283.309,18.578z M234.969,438.742c-67.297,0-122.074-61.285-122.074-136.613
	c0-9.102,6.598-16.477,14.723-16.477c8.129,0,14.726,7.375,14.726,16.477c0,57.16,41.551,103.656,92.625,103.656
	c8.145,0,14.727,7.379,14.727,16.48C249.695,431.367,243.113,438.742,234.969,438.742z"/>
<g>
</g>
<g>
</g>
<g>
</g>
<g>
</g>
<g>
</g>
<g>
</g>
<g>
</g>
<g>
</g>
<g>
</g>
<g>
</g>
<g>
</g>
<g>
</g>
<g>
</g>
<g>
</g>
<g>
</g>
</svg>
